<?xml version="1.0" encoding="UTF-8"?>
<svg width="1500px" height="285px" viewBox="0 0 1500 285" version="1.1" xmlns="http://www.w3.org/2000/svg" xmlns:xlink="http://www.w3.org/1999/xlink">
    <title>Logo文字</title>
    <g id="Logo文字" stroke="none" stroke-width="1" fill="none" fill-rule="evenodd">
        <g id="Logo" transform="translate(50.000000, 57.000000)">
            <path d="M73,0 L146,52.9218906 L146,142.248649 L79.4888889,142.248649 L73,137.722555 L66.5111111,142.248649 L0,142.248649 L0,52.9218906 L73,0 Z" id="Bootom" fill="#FFFFFF"></path>
            <g transform="translate(72.070064, 72.518919) scale(-1, 1) rotate(-180.000000) translate(-72.070064, -72.518919) translate(7.439490, 9.297297)" fill="#063C7C" fill-rule="nonzero" id="路径">
                <path d="M0,79.3495863 L0,0 L56.7287015,0 C53.4464631,4.38384042 50.5639204,8.46474854 48.0810736,12.2427244 C40.880302,22.8949418 37.9831866,33.0129364 38.1454194,42.9417846 C38.2569901,49.7700459 39.9482969,56.5329058 43.3029522,63.2216216 C45.7018833,68.0047566 49.4078712,72.1180576 53.2114187,75.9333814 C57.799039,80.5352055 61.5971546,82.1292322 64.5977723,82.1292322 C67.3026573,82.1292322 72.2605335,79.6159912 76.871349,75.2137839 C81.2820654,71.0026226 85.2687944,64.6286686 87.3771269,60.2338687 C89.496813,55.8361706 90.8854295,51.0585545 91.1612949,46.0321329 C91.395305,41.7683381 91.1177895,39.6435218 90.5779027,35.357302 C90.4134814,34.051944 89.3887639,29.7963385 88.7134536,27.4632941 C88.1781399,25.6139068 87.0679712,22.1643993 85.3829473,17.1147718 L79.2545978,18.8950782 C79.8681617,21.1933544 80.8458118,24.3016601 82.1875482,28.2199953 C82.3075358,28.5704006 82.7081882,30.0114241 82.7856356,30.3205564 C83.2824027,32.3034066 83.8077509,34.4306515 84.0921614,36.5163228 C84.5230556,39.6762058 84.4724919,42.6787296 84.4724919,44.4253426 C84.3955907,47.5686155 83.7065748,51.7786619 82.1875482,55.632895 C79.8347153,61.6027484 76.1003495,67.0520305 72.1696213,70.614451 C69.4153137,73.110681 66.8108294,74.0096386 64.5977723,73.8314159 C63.3459315,73.7306022 62.5306951,73.2919036 61.1143266,72.5858932 C57.9242765,71.1945303 53.514165,66.5447942 50.4804226,60.2338687 C47.5490508,54.1358992 46.3330048,46.6802238 46.3330048,41.5906614 C46.3330048,36.790777 47.3828041,31.1218717 49.5168569,25.762857 C52.7694511,17.5949712 58.6704375,10.6912172 65.7719392,5.85342005 C68.1532807,4.13157897 69.9309006,2.96112301 71.1047991,2.34205219 C72.3974362,1.660363 74.3196195,0.879678936 76.871349,0 L129.195545,0 L129.034947,40.7729555 C129.121552,49.2773481 129.185337,56.375623 129.226301,62.0677802 C129.281406,69.7247025 129.271153,75.4853045 129.195545,79.3495863 L64.5977723,126.443243 L0,79.3495863 Z"></path>
            </g>
            <path d="M102.292994,172 L102.292994,157.124324 L117.171975,157.124324 L117.171975,172 L102.292994,172 Z M106.091882,168.281081 L115.271994,168.280324 L115.271994,165.801324 L106.091882,165.801802 L106.091882,168.281081 Z M106.091882,162.702703 L115.271994,162.702324 L115.271994,160.533324 L106.091882,160.533333 L106.091882,162.702703 Z" id="B" fill="#063C7C"></path>
            <path d="M81.8343949,157.124324 L81.8343949,160.533333 L70.120414,160.533324 L70.120414,162.702324 L76.4526359,162.702703 L76.4526359,165.801802 L70.120414,165.801324 L70.120414,168.280324 L81.8343949,168.281081 L81.8343949,172 L66.955414,172 L66.955414,157.124324 L81.8343949,157.124324 Z" id="E" fill="#063C7C"></path>
            <path d="M34.4076433,172 L34.4076433,157.124324 L37.8174098,157.124324 L37.8174098,168.281081 L49.2866242,168.281081 L49.2866242,172 L34.4076433,172 Z" id="L" fill="#063C7C"></path>
        </g>
        <g id="建筑节能设计基础数据共享平台" transform="translate(231.999023, 102.906250)" fill="#063C7C" fill-rule="nonzero" stroke="#063C7C" stroke-width="3">
            <path d="M53.6259766,37.546875 L53.6259766,48.671875 L63.0126953,48.671875 C63.7080078,47.28125 65.3304036,45.3111979 67.8798828,42.7617188 C64.6350911,43.2252604 63.0126953,42.4140625 63.0126953,40.328125 L63.0126953,37.546875 L53.6259766,37.546875 Z M53.6259766,27.4648438 L53.6259766,35.8085938 L63.0126953,35.8085938 L63.0126953,27.4648438 L53.6259766,27.4648438 Z M53.6259766,16.3398438 L53.6259766,25.3789062 L63.0126953,25.3789062 L63.0126953,16.3398438 L53.6259766,16.3398438 Z M45.2822266,71.6171875 L45.2822266,62.578125 L35.5478516,62.578125 C35.0843099,62.8098958 33.2301432,62.9257812 29.9853516,62.9257812 L27.8994141,60.4921875 C28.8264974,60.7239583 29.7535807,60.8398438 30.6806641,60.8398438 L45.2822266,60.8398438 L45.2822266,50.4101562 L39.0244141,50.4101562 C37.1702474,50.6419271 35.4319661,50.7578125 33.8095703,50.7578125 L31.3759766,48.3242188 C32.3030599,48.5559896 33.3460286,48.671875 34.5048828,48.671875 L45.2822266,48.671875 L45.2822266,37.546875 L38.3291016,37.546875 C37.8655599,37.7786458 36.0113932,37.8945313 32.7666016,37.8945313 L30.6806641,35.4609375 C31.6077474,35.6927083 32.5348307,35.8085938 33.4619141,35.8085938 L45.2822266,35.8085938 L45.2822266,27.4648438 L32.7666016,27.4648438 C30.6806641,27.4648438 28.8264974,27.4648438 27.2041016,27.4648438 L25.1181641,25.03125 C26.0452474,25.2630208 26.9723307,25.3789062 27.8994141,25.3789062 L45.2822266,25.3789062 L45.2822266,16.3398438 L37.2861328,16.3398438 L32.4189453,16.3398438 L30.6806641,13.90625 C31.6077474,14.1380208 32.5348307,14.2539062 33.4619141,14.2539062 L45.2822266,14.2539062 L45.2822266,2.43359375 C50.3811849,2.43359375 53.6259766,2.66536458 55.0166016,3.12890625 C55.7119141,3.82421875 55.7119141,4.40364583 55.0166016,4.8671875 C54.5530599,5.5625 54.0895182,5.91015625 53.6259766,5.91015625 L53.6259766,14.2539062 L61.9697266,14.2539062 C62.2014974,14.0221354 62.6650391,13.4427083 63.3603516,12.515625 C64.2874349,11.3567708 64.9827474,10.7773438 65.4462891,10.7773438 C68.4593099,11.4726562 71.4723307,13.0950521 74.4853516,15.6445312 C74.4853516,16.1080729 73.9059245,16.8033854 72.7470703,17.7304688 C72.5152995,17.9622396 72.3994141,18.078125 72.3994141,18.078125 L72.3994141,25.3789062 L74.1376953,25.3789062 C75.2965495,23.7565104 76.8030599,22.0182292 78.6572266,20.1640625 C78.8889974,19.9322917 79.2366536,19.9322917 79.7001953,20.1640625 C82.944987,22.9453125 85.0309245,25.03125 85.9580078,26.421875 C85.726237,26.8854167 85.4944661,27.2330729 85.2626953,27.4648438 L72.3994141,27.4648438 L72.3994141,40.328125 C72.1676432,41.2552083 71.2405599,41.9505208 69.6181641,42.4140625 C73.3264974,45.1953125 75.8759766,47.3971354 77.2666016,49.0195312 C77.4983724,49.9466146 77.382487,50.4101562 76.9189453,50.4101562 L53.6259766,50.4101562 L53.6259766,60.8398438 L65.7939453,60.8398438 C67.4163411,58.2903646 69.1546224,56.2044271 71.0087891,54.5820312 C71.2405599,54.3502604 71.5882161,54.3502604 72.0517578,54.5820312 C75.0647786,56.4361979 77.7301432,58.6380208 80.0478516,61.1875 C80.2796224,61.8828125 80.163737,62.3463542 79.7001953,62.578125 L53.6259766,62.578125 L53.6259766,69.8789062 C50.3811849,73.3554688 47.5999349,73.9348958 45.2822266,71.6171875 Z M74.8330078,85.1757812 L60.5791016,85.1757812 C41.1103516,85.1757812 27.2041016,81.0039062 18.8603516,72.6601562 C13.9931641,77.9908854 8.08300781,82.046875 1.12988281,84.828125 C0.434570312,84.828125 0.0869140625,84.7122396 0.0869140625,84.4804688 C-0.144856771,84.2486979 0.0869140625,84.0169271 0.782226562,83.7851562 C6.80826823,79.8450521 11.4436849,74.5143229 14.6884766,67.7929688 C10.5166016,61.9986979 7.38769531,53.8867188 5.30175781,43.4570312 C5.53352865,42.9934896 5.99707031,42.8776042 6.69238281,43.109375 C9.01009115,51.2213542 12.4866536,57.5950521 17.1220703,62.2304688 C19.4397786,55.2773438 20.4827474,47.9765625 20.2509766,40.328125 L13.6455078,40.328125 C12.4866536,41.71875 11.4436849,42.4140625 10.5166016,42.4140625 C10.0530599,42.6458333 9.58951823,42.5299479 9.12597656,42.0664062 C6.11295573,39.9804688 4.02701823,38.2421875 2.86816406,36.8515625 C2.4046224,36.3880208 2.4046224,35.9244792 2.86816406,35.4609375 C3.33170573,35.4609375 4.4905599,34.8815104 6.34472656,33.7226562 L15.3837891,11.4726562 L8.43066406,11.4726562 C6.5764974,11.7044271 4.83821615,11.8203125 3.21582031,11.8203125 L0.782226562,9.38671875 C1.7093099,9.61848958 2.75227865,9.734375 3.91113281,9.734375 L15.3837891,9.734375 C15.6155599,9.50260417 15.8473307,9.0390625 16.0791016,8.34375 C16.3108724,7.6484375 16.6585286,7.06901042 17.1220703,6.60546875 C17.585612,6.37369792 18.0491536,6.14192708 18.5126953,5.91015625 C21.757487,7.53255208 24.6546224,9.0390625 27.2041016,10.4296875 C27.6676432,10.8932292 27.6676432,11.4726562 27.2041016,12.1679688 C25.5817057,13.3268229 24.538737,14.0221354 24.0751953,14.2539062 L13.6455078,38.5898438 L19.2080078,38.5898438 C20.1350911,37.1992188 21.4098307,35.9244792 23.0322266,34.765625 C23.2639974,34.765625 23.7275391,34.8815104 24.4228516,35.1132812 C23.9593099,34.6497396 24.0751953,34.6497396 24.7705078,35.1132812 C26.6246745,36.0403646 28.710612,37.3151042 31.0283203,38.9375 C31.2600911,39.6328125 31.2600911,40.2122396 31.0283203,40.6757812 C30.7965495,41.1393229 30.4488932,41.6028646 29.9853516,42.0664062 C29.2900391,42.7617188 28.8264974,43.3411458 28.5947266,43.8046875 C27.8994141,53.5390625 25.8134766,61.3033854 22.3369141,67.0976562 C29.7535807,72.4283854 39.6038411,75.09375 51.8876953,75.09375 L65.7939453,75.09375 C72.0517578,75.09375 78.1936849,74.2825521 84.2197266,72.6601562 C84.6832682,72.8919271 84.7991536,73.3554688 84.5673828,74.0507812 C81.0908203,75.2096354 79.4684245,78.3385417 79.7001953,83.4375 C79.4684245,83.6692708 79.2366536,84.0169271 79.0048828,84.4804688 C77.6142578,84.9440104 76.2236328,85.1757812 74.8330078,85.1757812 Z" id="形状"></path>
            <path d="M102.993164,65.0117188 L102.993164,39.2851562 L99.5166016,39.2851562 C99.0530599,39.5169271 97.0830078,39.6328125 93.6064453,39.6328125 L91.8681641,37.1992188 C92.7952474,37.4309896 93.7223307,37.546875 94.6494141,37.546875 L112.032227,37.546875 C114.118164,34.9973958 115.624674,33.1432292 116.551758,31.984375 C117.015299,31.984375 117.362956,31.984375 117.594727,31.984375 C120.375977,34.3020833 122.461914,36.3880208 123.852539,38.2421875 C123.852539,38.9375 123.620768,39.2851562 123.157227,39.2851562 L113.770508,39.2851562 C113.770508,39.7486979 113.538737,40.0963542 113.075195,40.328125 C112.843424,40.5598958 112.379883,40.9075521 111.68457,41.3710938 C111.221029,41.8346354 110.989258,42.0664062 110.989258,42.0664062 L110.989258,63.6210938 C111.916341,63.6210938 112.843424,63.5052083 113.770508,63.2734375 C117.478841,62.3463542 120.260091,61.7669271 122.114258,61.5351562 C122.346029,61.5351562 122.577799,61.7669271 122.80957,62.2304688 C122.80957,62.6940104 122.693685,63.0416667 122.461914,63.2734375 C118.058268,65.8229167 108.671549,70.921875 94.3017578,78.5703125 C93.6064453,78.8020833 93.1429036,78.8020833 92.9111328,78.5703125 C92.679362,77.875 91.9840495,76.6002604 90.8251953,74.7460938 C89.898112,72.4283854 89.2027995,70.4583333 88.7392578,68.8359375 C88.507487,68.140625 88.7392578,67.5611979 89.4345703,67.0976562 C90.8251953,66.8658854 95.3447266,66.1705729 102.993164,65.0117188 Z M134.282227,49.3671875 L134.282227,55.9726562 C134.513997,69.8789062 126.517904,79.6132812 110.293945,85.1757812 C109.135091,84.7122396 108.90332,84.0169271 109.598633,83.0898438 C120.260091,77.2955729 125.706706,68.2565104 125.938477,55.9726562 L125.938477,33.0273438 C128.951497,33.9544271 131.732747,35.1132812 134.282227,36.5039062 L147.145508,36.5039062 C148.767904,34.1861979 150.042643,33.0273438 150.969727,33.0273438 C154.214518,33.9544271 157.343424,35.5768229 160.356445,37.8945312 C160.356445,38.3580729 159.777018,39.0533854 158.618164,39.9804688 C157.922852,40.9075521 157.575195,41.3710938 157.575195,41.3710938 L157.575195,71.9648438 C157.806966,74.0507812 158.734049,75.09375 160.356445,75.09375 L163.485352,75.09375 C166.266602,75.09375 169.047852,70.4583333 171.829102,61.1875 C172.292643,60.4921875 172.987956,60.6080729 173.915039,61.5351562 C171.829102,69.6471354 171.597331,74.6302083 173.219727,76.484375 C173.683268,77.1796875 173.915039,77.9908854 173.915039,78.9179688 C173.683268,81.6992188 171.017904,83.2057292 165.918945,83.4375 L155.489258,83.4375 C151.549154,82.7421875 149.463216,80.8880208 149.231445,77.875 L149.231445,38.5898438 L134.282227,38.5898438 L134.282227,49.0195312 C134.513997,48.7877604 134.745768,48.5559896 134.977539,48.3242188 C141.698893,51.1054688 145.523112,55.2773438 146.450195,60.8398438 C146.450195,63.6210938 145.05957,65.4752604 142.27832,66.4023438 C139.265299,66.6341146 137.527018,65.359375 137.063477,62.578125 C137.063477,62.3463542 137.063477,61.8828125 137.063477,61.1875 C137.295247,60.4921875 137.411133,59.796875 137.411133,59.1015625 C137.411133,55.8567708 136.484049,52.7278646 134.629883,49.7148438 C134.398112,49.7148438 134.282227,49.5989583 134.282227,49.3671875 Z M108.208008,18.078125 L104.383789,18.078125 C100.675456,23.4088542 96.2718099,28.7395833 91.1728516,34.0703125 C90.2457682,34.3020833 89.898112,33.9544271 90.1298828,33.0273438 C95.460612,23.7565104 99.0530599,13.4427083 100.907227,2.0859375 C100.907227,1.85416667 101.254883,1.62239583 101.950195,1.390625 C104.963216,2.31770833 108.787435,3.70833333 113.422852,5.5625 C113.654622,6.02604167 113.654622,6.37369792 113.422852,6.60546875 C112.727539,7.30078125 111.800456,7.88020833 110.641602,8.34375 C109.250977,10.8932292 107.512695,13.5585938 105.426758,16.3398438 L118.290039,16.3398438 C118.52181,16.3398438 119.564779,15.1809896 121.418945,12.8632812 C122.346029,11.4726563 123.041341,10.5455729 123.504883,10.0820312 C123.504883,10.0820312 123.736654,10.0820312 124.200195,10.0820312 C124.431966,10.0820312 124.663737,10.0820312 124.895508,10.0820312 C128.603841,12.8632812 131.15332,15.0651042 132.543945,16.6875 C132.775716,17.6145833 132.659831,18.078125 132.196289,18.078125 L112.379883,18.078125 C115.856445,19.46875 118.058268,21.5546875 118.985352,24.3359375 C119.680664,27.3489583 118.753581,29.5507812 116.204102,30.9414062 C113.422852,31.8684896 111.568685,30.9414062 110.641602,28.1601562 C110.17806,27.0013021 110.17806,25.8424479 110.641602,24.6835938 C110.641602,24.4518229 110.641602,24.2200521 110.641602,23.9882812 C110.873372,22.8294271 110.062174,20.859375 108.208008,18.078125 Z M145.407227,17.0351562 L142.625977,17.0351562 C139.844727,21.4388021 135.672852,26.1901042 130.110352,31.2890625 C129.183268,31.5208333 128.835612,31.1731771 129.067383,30.2460938 C134.629883,19.1210938 137.874674,9.61848958 138.801758,1.73828125 C138.801758,1.50651042 139.149414,1.27473958 139.844727,1.04296875 C142.857747,1.97005208 146.681966,3.36067708 151.317383,5.21484375 C151.549154,5.67838542 151.549154,6.02604167 151.317383,6.2578125 C150.62207,6.953125 149.694987,7.53255208 148.536133,7.99609375 C147.145508,10.5455729 145.638997,12.9791667 144.016602,15.296875 L157.922852,15.296875 C160.008789,12.7473958 161.74707,10.6614583 163.137695,9.0390625 C163.369466,8.80729167 163.717122,8.80729167 164.180664,9.0390625 C166.961914,10.1979167 169.974935,12.3997396 173.219727,15.6445312 C173.451497,16.1080729 173.567383,16.4557292 173.567383,16.6875 C173.335612,16.9192708 173.103841,17.0351562 172.87207,17.0351562 L148.536133,17.0351562 C152.939779,19.1210938 155.605143,21.6705729 156.532227,24.6835938 C156.763997,27.9283854 155.489258,30.0143229 152.708008,30.9414062 C149.694987,31.6367188 147.956706,30.4778646 147.493164,27.4648438 C147.261393,27.2330729 147.261393,26.7695312 147.493164,26.0742188 C147.724935,25.3789062 147.84082,24.6835938 147.84082,23.9882812 C147.84082,22.1341146 147.029622,19.8164062 145.407227,17.0351562 Z" id="形状"></path>
            <path d="M227.106445,26.421875 L227.106445,18.078125 L211.461914,18.078125 L211.461914,28.1601562 C205.899414,31.1731771 202.770508,30.9414062 202.075195,27.4648438 L202.075195,18.078125 L186.430664,18.078125 C184.576497,18.3098958 182.722331,18.4257812 180.868164,18.4257812 L178.782227,15.9921875 C179.70931,16.2239583 180.752279,16.3398438 181.911133,16.3398438 L202.075195,16.3398438 L202.075195,1.390625 C207.869466,1.85416667 211.80957,2.54947917 213.895508,3.4765625 C214.59082,3.94010417 214.59082,4.51953125 213.895508,5.21484375 C212.968424,6.14192708 212.157227,6.72135417 211.461914,6.953125 L211.461914,16.3398438 L227.106445,16.3398438 L227.106445,1.390625 C232.900716,1.85416667 236.84082,2.54947917 238.926758,3.4765625 C239.62207,3.94010417 239.62207,4.51953125 238.926758,5.21484375 C237.999674,6.14192708 237.188477,6.72135417 236.493164,6.953125 L236.493164,16.3398438 L245.532227,16.3398438 C247.618164,13.3268229 249.704102,10.5455729 251.790039,7.99609375 C252.253581,7.99609375 252.717122,7.99609375 253.180664,7.99609375 C257.352539,11.0091146 260.829102,13.6744792 263.610352,15.9921875 C264.073893,17.1510417 263.958008,17.8463542 263.262695,18.078125 L236.493164,18.078125 L236.493164,27.4648438 C234.870768,28.8554688 232.668945,29.5507812 229.887695,29.5507812 C228.033529,29.3190104 227.106445,28.2760417 227.106445,26.421875 Z M219.805664,82.7421875 C219.342122,84.1328125 217.256185,85.0598958 213.547852,85.5234375 C210.534831,85.7552083 209.02832,85.0598958 209.02832,83.4375 L209.375977,42.0664062 L209.375977,34.765625 L189.211914,34.765625 L183.301758,34.765625 L181.21582,32.6796875 C182.142904,32.9114583 183.649414,33.0273438 185.735352,33.0273438 L242.750977,33.0273438 C242.750977,33.0273438 242.866862,32.7955729 243.098633,32.3320312 C244.952799,29.5507812 246.111654,28.1601562 246.575195,28.1601562 C250.74707,29.7825521 254.455404,31.7526042 257.700195,34.0703125 C257.700195,34.765625 257.004883,35.6927083 255.614258,36.8515625 C254.918945,37.3151042 254.687174,37.546875 254.918945,37.546875 L254.918945,55.2773438 C255.614258,68.2565104 251.674154,74.8619792 243.098633,75.09375 C242.866862,75.09375 242.287435,75.09375 241.360352,75.09375 C240.89681,70.4583333 236.84082,66.9817708 229.192383,64.6640625 C228.265299,63.7369792 228.381185,63.0416667 229.540039,62.578125 C240.201497,65.359375 245.18457,63.1575521 244.489258,55.9726562 L244.489258,34.765625 L221.891602,34.765625 C221.891602,35.4609375 221.080404,36.3880208 219.458008,37.546875 L219.458008,42.0664062 L219.805664,82.7421875 Z" id="形状"></path>
            <path d="M282.731445,51.453125 L282.731445,61.5351562 L296.637695,61.5351562 L296.637695,51.453125 L282.731445,51.453125 Z M282.731445,39.2851562 L282.731445,49.7148438 L296.637695,49.7148438 L296.637695,39.2851562 L282.731445,39.2851562 Z M274.387695,73.3554688 L274.387695,42.0664062 L274.040039,34.0703125 C273.808268,34.0703125 273.924154,33.9544271 274.387695,33.7226562 C278.55957,35.5768229 281.34082,36.8515625 282.731445,37.546875 L293.856445,37.546875 C294.783529,36.3880208 295.942383,35.2291667 297.333008,34.0703125 C297.796549,33.8385417 298.260091,33.8385417 298.723633,34.0703125 C300.114258,34.5338542 302.547852,35.8085938 306.024414,37.8945312 C305.792643,37.6627604 306.140299,37.7786458 307.067383,38.2421875 C307.530924,38.4739583 307.64681,38.9375 307.415039,39.6328125 C307.183268,39.8645833 306.835612,40.2122396 306.37207,40.6757812 C305.676758,41.6028646 305.213216,42.0664062 304.981445,42.0664062 L305.676758,79.6132812 C305.676758,82.8580729 302.547852,84.9440104 296.290039,85.8710938 C295.594727,85.6393229 295.24707,85.2916667 295.24707,84.828125 C294.551758,80.4244792 291.886393,77.6432292 287.250977,76.484375 C286.787435,75.5572917 286.90332,75.09375 287.598633,75.09375 C293.392904,75.5572917 296.405924,75.4414062 296.637695,74.7460938 L296.637695,63.6210938 L282.731445,63.6210938 L282.731445,81.6992188 C280.413737,84.7122396 277.516602,85.5234375 274.040039,84.1328125 C273.808268,83.2057292 273.808268,81.4674479 274.040039,78.9179688 C274.040039,77.0638021 274.155924,75.2096354 274.387695,73.3554688 Z M292.813477,7.99609375 L278.907227,21.9023438 C280.529622,22.1341146 283.542643,22.3658854 287.946289,22.5976562 C292.349935,22.5976562 296.058268,22.5976562 299.071289,22.5976562 C298.607747,18.6575521 297.333008,15.8763021 295.24707,14.2539062 C294.783529,13.7903646 294.899414,13.4427083 295.594727,13.2109375 C303.474935,14.3697917 308.342122,17.4986979 310.196289,22.5976562 C310.659831,26.3059896 309.616862,29.0872396 307.067383,30.9414062 C304.054362,32.5638021 301.736654,31.8684896 300.114258,28.8554688 C299.650716,28.3919271 299.30306,27.3489583 299.071289,25.7265625 C299.071289,25.03125 299.071289,24.4518229 299.071289,23.9882812 C287.019206,27.4648438 278.327799,30.0143229 272.99707,31.6367188 C272.069987,32.1002604 271.49056,31.8684896 271.258789,30.9414062 C271.027018,30.7096354 270.795247,30.3619792 270.563477,29.8984375 C268.941081,26.421875 268.129883,24.1041667 268.129883,22.9453125 C267.666341,22.4817708 267.898112,22.0182292 268.825195,21.5546875 C275.083008,20.1640625 279.602539,13.6744792 282.383789,2.0859375 C282.383789,1.85416667 282.963216,1.62239583 284.12207,1.390625 C290.148112,3.24479167 294.204102,4.51953125 296.290039,5.21484375 C296.290039,5.44661458 296.405924,5.79427083 296.637695,6.2578125 C295.942383,6.72135417 295.362956,7.06901042 294.899414,7.30078125 C293.74056,7.53255208 293.045247,7.76432292 292.813477,7.99609375 Z M321.668945,21.2070312 L321.668945,26.421875 C321.205404,29.6666667 323.05957,31.1731771 327.231445,30.9414062 L333.141602,30.9414062 C341.253581,32.1002604 346.004883,28.0442708 347.395508,18.7734375 C347.627279,18.3098958 347.974935,18.3098958 348.438477,18.7734375 C347.511393,23.640625 347.743164,27.2330729 349.133789,29.5507812 C349.829102,30.9414062 350.176758,32.1002604 350.176758,33.0273438 C349.944987,37.1992188 345.30957,39.2851562 336.270508,39.2851562 L325.145508,39.2851562 C316.801758,39.7486979 312.861654,36.9674479 313.325195,30.9414062 L313.325195,7.99609375 L312.977539,2.43359375 C312.977539,2.43359375 313.20931,2.31770833 313.672852,2.0859375 C318.076497,2.78125 321.437174,3.70833333 323.754883,4.8671875 C323.986654,5.33072917 323.986654,5.79427083 323.754883,6.2578125 C323.523112,6.72135417 323.05957,7.06901042 322.364258,7.30078125 C322.132487,7.53255208 321.900716,7.76432292 321.668945,7.99609375 L321.668945,19.1210938 C326.072591,16.3398438 330.939779,12.3997396 336.270508,7.30078125 C336.502279,7.06901042 336.96582,7.06901042 337.661133,7.30078125 C342.296549,11.0091146 345.193685,13.3268229 346.352539,14.2539062 C346.352539,14.4856771 346.468424,14.8333333 346.700195,15.296875 C344.614258,15.296875 343.223633,15.4127604 342.52832,15.6445312 C339.051758,16.8033854 333.952799,18.1940104 327.231445,19.8164062 C324.681966,20.5117188 322.827799,20.9752604 321.668945,21.2070312 Z M344.961914,53.8867188 L323.407227,61.1875 L323.407227,69.8789062 C323.175456,73.3554688 325.029622,74.9778646 328.969727,74.7460938 L335.575195,74.7460938 C341.369466,75.2096354 345.773112,70.8059896 348.786133,61.5351562 C349.017904,60.8398438 349.249674,60.8398438 349.481445,61.5351562 C348.09082,66.6341146 348.322591,70.8059896 350.176758,74.0507812 C350.640299,74.7460938 350.987956,75.09375 351.219727,75.09375 C350.524414,79.4973958 346.816081,81.9309896 340.094727,82.3945312 L327.926758,82.3945312 C319.119466,82.3945312 314.831706,79.4973958 315.063477,73.703125 L315.063477,41.3710938 C316.917643,41.6028646 319.003581,41.8346354 321.321289,42.0664062 C323.407227,42.5299479 324.797852,42.8776042 325.493164,43.109375 C325.724935,43.5729167 325.724935,44.1523438 325.493164,44.8476562 C325.261393,45.3111979 324.681966,45.890625 323.754883,46.5859375 C323.523112,46.8177083 323.407227,46.9335938 323.407227,46.9335938 L323.407227,59.4492188 C326.883789,56.2044271 331.750977,51.2213542 338.008789,44.5 C338.472331,44.0364583 338.935872,43.9205729 339.399414,44.1523438 C339.862956,44.6158854 341.137695,45.7747396 343.223633,47.6289062 C345.773112,49.9466146 347.743164,51.453125 349.133789,52.1484375 C349.36556,52.84375 349.36556,53.3072917 349.133789,53.5390625 C348.438477,53.7708333 347.743164,53.8867188 347.047852,53.8867188 C346.120768,53.8867188 345.425456,53.8867188 344.961914,53.8867188 Z" id="形状"></path>
            <path d="M393.286133,15.6445312 L393.286133,11.8203125 L392.938477,3.82421875 C393.170247,3.36067708 393.402018,3.12890625 393.633789,3.12890625 C395.024414,3.59244792 397.110352,4.75130208 399.891602,6.60546875 C400.123372,6.60546875 400.355143,6.60546875 400.586914,6.60546875 L412.407227,6.60546875 C414.261393,4.28776042 415.652018,3.01302083 416.579102,2.78125 C416.810872,2.54947917 417.390299,2.54947917 418.317383,2.78125 C418.317383,3.01302083 418.549154,3.24479167 419.012695,3.4765625 C422.721029,5.5625 425.154622,7.06901042 426.313477,7.99609375 C426.545247,8.45963542 426.429362,8.80729167 425.96582,9.0390625 C425.502279,9.734375 424.691081,10.3138021 423.532227,10.7773438 C423.300456,10.7773438 423.18457,10.7773438 423.18457,10.7773438 L423.18457,21.9023438 C422.952799,23.9882812 424.806966,24.9153646 428.74707,24.6835938 L430.137695,24.6835938 C430.369466,24.6835938 431.52832,24.4518229 433.614258,23.9882812 C434.773112,23.5247396 435.58431,23.1770833 436.047852,22.9453125 C439.756185,24.1041667 441.610352,26.421875 441.610352,29.8984375 C440.683268,32.2161458 436.163737,33.2591146 428.051758,33.0273438 L423.532227,33.0273438 C417.042643,33.0273438 413.797852,31.6367188 413.797852,28.8554687 L413.797852,8.34375 L401.629883,8.34375 L401.629883,15.6445312 C400.702799,27.9283854 394.329102,35.8085938 382.508789,39.2851562 C381.349935,39.0533854 381.118164,38.5898438 381.813477,37.8945312 C388.766602,33.7226562 392.59082,26.3059896 393.286133,15.6445312 Z M414.84082,66.0546875 C423.416341,71.8489583 431.644206,74.5143229 439.524414,74.0507812 C439.987956,74.2825521 439.987956,74.6302083 439.524414,75.09375 C436.279622,75.5572917 433.150716,78.4544271 430.137695,83.7851562 C429.210612,84.2486979 428.74707,84.3645833 428.74707,84.1328125 C420.40332,80.8880208 413.681966,76.7161458 408.583008,71.6171875 C397.921549,79.265625 387.260091,83.5533854 376.598633,84.4804688 C375.90332,84.0169271 375.671549,83.5533854 375.90332,83.0898438 C387.723633,78.9179688 397.226237,73.2395833 404.411133,66.0546875 C400.239258,60.4921875 396.994466,53.5390625 394.676758,45.1953125 L389.80957,45.1953125 L387.02832,43.109375 C387.723633,43.109375 388.882487,43.2252604 390.504883,43.4570312 C391.895508,43.4570312 392.938477,43.4570312 393.633789,43.4570312 L415.883789,43.4570312 C416.810872,41.3710938 417.737956,39.8645833 418.665039,38.9375 C419.128581,38.7057292 419.592122,38.5898438 420.055664,38.5898438 C420.287435,38.8216146 420.750977,39.1692708 421.446289,39.6328125 C426.313477,42.1822917 429.558268,44.1523438 431.180664,45.5429688 C430.717122,46.7018229 430.485352,47.28125 430.485352,47.28125 C428.862956,47.5130208 427.472331,47.9765625 426.313477,48.671875 C423.763997,55.1614583 419.939779,60.9557292 414.84082,66.0546875 Z M417.62207,45.1953125 L396.067383,45.1953125 C398.616862,50.9895833 402.788737,56.3203125 408.583008,61.1875 C412.291341,56.5520833 415.304362,51.2213542 417.62207,45.1953125 Z M366.516602,61.8828125 L366.516602,33.7226562 L361.99707,33.7226562 C360.374674,33.9544271 358.752279,34.0703125 357.129883,34.0703125 L354.696289,31.2890625 C355.159831,31.5208333 356.666341,31.7526042 359.21582,31.984375 L364.430664,31.984375 C364.662435,31.984375 365.473633,31.1731771 366.864258,29.5507812 C367.327799,29.0872396 367.675456,28.7395833 367.907227,28.5078125 C368.370768,28.0442708 368.950195,27.8125 369.645508,27.8125 C371.499674,28.7395833 374.049154,30.4778646 377.293945,33.0273438 C377.757487,33.7226562 377.757487,34.3020833 377.293945,34.765625 C376.830404,35.2291667 376.135091,35.6927083 375.208008,36.15625 C374.976237,36.3880208 374.860352,36.5039062 374.860352,36.5039062 L374.860352,65.0117188 C382.045247,60.3763021 387.144206,56.8997396 390.157227,54.5820312 C390.852539,55.0455729 391.200195,55.3932292 391.200195,55.625 C389.577799,57.4791667 387.02832,60.4921875 383.551758,64.6640625 C379.611654,69.53125 375.787435,74.2825521 372.079102,78.9179688 C371.152018,79.8450521 370.456706,79.9609375 369.993164,79.265625 C368.370768,77.4114583 366.748372,75.09375 365.125977,72.3125 C364.662435,71.6171875 364.662435,70.8059896 365.125977,69.8789062 C366.05306,68.2565104 366.516602,65.5911458 366.516602,61.8828125 Z M362.692383,2.78125 C371.036133,4.171875 376.250977,6.83723958 378.336914,10.7773438 C379.495768,14.2539062 378.68457,16.9192708 375.90332,18.7734375 C372.426758,20.6276042 370.109049,19.9322917 368.950195,16.6875 C368.486654,16.2239583 368.254883,15.4127604 368.254883,14.2539062 C368.254883,13.3268229 368.254883,12.6315104 368.254883,12.1679688 C367.791341,9.85026042 365.821289,7.18489583 362.344727,4.171875 C361.881185,3.94010417 361.649414,3.59244792 361.649414,3.12890625 C361.881185,2.89713542 362.228841,2.78125 362.692383,2.78125 Z" id="形状"></path>
            <path d="M493.758789,82.3945312 L494.454102,38.5898438 L480.547852,38.5898438 C478.230143,38.5898438 476.260091,38.5898438 474.637695,38.5898438 L472.899414,36.15625 C473.826497,36.3880208 474.753581,36.5039062 475.680664,36.5039062 L494.454102,36.5039062 L494.801758,17.0351562 L494.801758,7.99609375 L494.454102,2.43359375 C494.454102,2.43359375 494.685872,2.31770833 495.149414,2.0859375 C500.480143,3.01302083 504.188477,3.94010417 506.274414,4.8671875 C506.506185,5.33072917 506.506185,5.79427083 506.274414,6.2578125 C506.042643,6.72135417 505.463216,7.30078125 504.536133,7.99609375 C504.304362,7.99609375 504.188477,7.99609375 504.188477,7.99609375 L504.188477,36.5039062 L512.532227,36.5039062 C515.545247,32.1002604 517.631185,29.4348958 518.790039,28.5078125 C518.790039,28.5078125 519.253581,28.5078125 520.180664,28.5078125 C524.352539,31.5208333 527.829102,34.1861979 530.610352,36.5039062 C531.073893,37.4309896 530.958008,38.1263021 530.262695,38.5898438 L504.188477,38.5898438 L504.188477,81.3515625 C503.724935,83.2057292 501.638997,84.4804688 497.930664,85.1757812 C495.149414,85.4075521 493.758789,84.4804688 493.758789,82.3945312 Z M458.993164,64.3164062 L458.993164,33.7226562 L452.735352,33.7226562 L446.477539,33.7226562 L445.086914,31.6367188 C445.550456,31.8684896 446.825195,31.984375 448.911133,31.984375 L456.907227,31.984375 C458.529622,29.6666667 459.804362,28.5078125 460.731445,28.5078125 C464.90332,29.8984375 468.032227,31.5208333 470.118164,33.375 C470.118164,33.6067708 469.538737,34.1861979 468.379883,35.1132812 C467.221029,36.0403646 466.757487,36.5039062 466.989258,36.5039062 L466.989258,67.0976562 C475.796549,60.8398438 481.243164,57.015625 483.329102,55.625 C484.024414,55.625 484.37207,55.9726562 484.37207,56.6679688 C476.02832,66.4023438 469.422852,74.7460938 464.555664,81.6992188 C464.323893,81.6992188 463.860352,81.8151042 463.165039,82.046875 C460.847331,79.0338542 458.993164,76.6002604 457.602539,74.7460938 C457.138997,74.0507812 457.138997,73.3554688 457.602539,72.6601562 C458.297852,70.8059896 458.761393,68.0247396 458.993164,64.3164062 Z M453.430664,5.91015625 C461.079102,5.67838542 465.946289,7.6484375 468.032227,11.8203125 C469.191081,15.0651042 468.495768,17.8463542 465.946289,20.1640625 C463.628581,22.0182292 461.310872,21.6705729 458.993164,19.1210938 C458.297852,18.4257812 457.83431,17.3828125 457.602539,15.9921875 C457.138997,12.2838542 455.516602,9.38671875 452.735352,7.30078125 C452.27181,6.83723958 452.503581,6.37369792 453.430664,5.91015625 Z" id="形状"></path>
            <path d="M584.844727,26.0742188 L584.844727,18.078125 L564.333008,18.078125 L564.333008,26.0742188 L584.844727,26.0742188 Z M584.844727,35.8085938 L584.844727,27.8125 L564.333008,27.8125 L564.333008,35.8085938 L584.844727,35.8085938 Z M584.844727,45.5429688 L584.844727,37.546875 L564.333008,37.546875 L564.333008,45.5429688 L584.844727,45.5429688 Z M588.668945,47.6289062 L565.723633,47.6289062 C566.650716,48.0924479 567.461914,48.4401042 568.157227,48.671875 C567.925456,48.9036458 567.80957,49.3671875 567.80957,50.0625 L564.680664,51.453125 C557.495768,60.7239583 547.181966,68.4882812 533.739258,74.7460938 C533.275716,74.9778646 533.043945,74.6302083 533.043945,73.703125 C542.546549,67.2135417 549.847331,58.5221354 554.946289,47.6289062 L540.692383,47.6289062 C538.606445,47.6289062 536.636393,47.6289062 534.782227,47.6289062 L533.043945,45.1953125 C533.971029,45.4270833 535.013997,45.5429688 536.172852,45.5429688 L555.989258,45.5429688 L555.989258,18.078125 L544.516602,18.078125 C544.05306,18.3098958 542.083008,18.4257812 538.606445,18.4257812 L536.868164,15.9921875 C537.795247,16.2239583 538.722331,16.3398438 539.649414,16.3398438 L555.989258,16.3398438 L555.989258,7.99609375 L555.641602,3.4765625 C555.641602,3.4765625 555.757487,3.36067708 555.989258,3.12890625 C558.306966,3.36067708 560.392904,3.59244792 562.24707,3.82421875 C564.101237,4.05598958 565.607747,4.28776042 566.766602,4.51953125 C566.998372,4.75130208 566.998372,5.21484375 566.766602,5.91015625 C566.534831,6.14192708 566.418945,6.2578125 566.418945,6.2578125 C565.723633,7.18489583 565.02832,7.76432292 564.333008,7.99609375 L564.333008,16.3398438 L584.844727,16.3398438 L584.844727,7.99609375 L584.49707,3.4765625 C584.49707,3.4765625 584.612956,3.36067708 584.844727,3.12890625 C586.930664,3.36067708 588.900716,3.59244792 590.754883,3.82421875 C592.609049,4.05598958 594.231445,4.28776042 595.62207,4.51953125 C595.853841,4.75130208 595.853841,5.21484375 595.62207,5.91015625 C594.694987,6.83723958 593.883789,7.53255208 593.188477,7.99609375 L593.188477,16.3398438 L599.793945,16.3398438 C601.416341,13.7903646 603.154622,11.7044271 605.008789,10.0820312 C605.24056,9.85026042 605.588216,9.85026042 606.051758,10.0820312 C609.064779,11.9361979 611.730143,14.1380208 614.047852,16.6875 C614.279622,17.3828125 614.163737,17.8463542 613.700195,18.078125 L593.188477,18.078125 L593.188477,45.5429688 L603.270508,45.5429688 C603.502279,45.3111979 604.429362,44.2682292 606.051758,42.4140625 C607.442383,40.7916667 608.369466,39.7486979 608.833008,39.2851562 C608.601237,39.2851562 608.948893,39.2851562 609.875977,39.2851562 C613.816081,41.6028646 616.829102,43.8046875 618.915039,45.890625 C619.378581,46.8177083 619.14681,47.3971354 618.219727,47.6289062 L590.05957,47.6289062 C595.62207,56.2044271 605.124674,60.4921875 618.567383,60.4921875 C619.030924,60.9557292 619.14681,61.3033854 618.915039,61.5351562 C614.511393,63.8528646 611.730143,66.75 610.571289,70.2265625 C610.107747,70.6901042 609.760091,70.921875 609.52832,70.921875 C598.635091,66.5182292 591.681966,58.7539062 588.668945,47.6289062 Z M570.938477,81.3515625 L570.938477,68.140625 L561.204102,68.140625 C560.74056,68.3723958 558.770508,68.4882812 555.293945,68.4882812 L553.555664,66.0546875 C554.482747,66.2864583 555.409831,66.4023438 556.336914,66.4023438 L570.938477,66.4023438 L570.938477,54.234375 L570.59082,49.7148438 C570.59082,49.7148438 570.706706,49.5989583 570.938477,49.3671875 C571.86556,49.5989583 572.792643,49.7148438 573.719727,49.7148438 C577.659831,49.9466146 580.325195,50.2942708 581.71582,50.7578125 C581.947591,51.2213542 581.947591,51.6848958 581.71582,52.1484375 C581.252279,52.84375 580.441081,53.5390625 579.282227,54.234375 L579.282227,66.4023438 L586.583008,66.4023438 C586.583008,66.1705729 586.814779,65.9388021 587.27832,65.7070312 C589.132487,63.1575521 590.523112,61.5351562 591.450195,60.8398438 C591.681966,60.8398438 591.913737,60.8398438 592.145508,60.8398438 C594.926758,63.1575521 597.012695,65.2434896 598.40332,67.0976562 C598.635091,67.7929688 598.40332,68.140625 597.708008,68.140625 L579.282227,68.140625 L579.282227,81.3515625 L594.926758,81.3515625 C597.244466,78.1067708 599.098633,76.0208333 600.489258,75.09375 C600.257487,75.09375 600.605143,75.09375 601.532227,75.09375 C604.777018,77.1796875 607.326497,79.3815104 609.180664,81.6992188 C609.644206,82.3945312 609.52832,82.8580729 608.833008,83.0898438 L547.297852,83.0898438 C546.83431,83.0898438 544.864258,83.2057292 541.387695,83.4375 L539.649414,81.0039062 C540.576497,81.0039062 541.503581,81.1197917 542.430664,81.3515625 L570.938477,81.3515625 Z" id="形状"></path>
            <path d="M636.993164,39.2851562 L636.993164,65.359375 L644.293945,65.359375 L644.293945,39.2851562 L636.993164,39.2851562 Z M636.993164,37.546875 L643.250977,37.546875 C644.17806,36.15625 644.989258,35.2291667 645.68457,34.765625 C645.916341,34.5338542 646.263997,34.5338542 646.727539,34.765625 C649.277018,36.15625 651.594727,37.6627604 653.680664,39.2851562 C653.680664,39.5169271 653.680664,39.7486979 653.680664,39.9804688 C653.680664,40.2122396 653.217122,40.5598958 652.290039,41.0234375 C651.826497,41.2552083 651.594727,41.3710938 651.594727,41.3710938 L652.637695,73.703125 C648.002279,76.2526042 645.221029,76.2526042 644.293945,73.703125 L644.293945,67.0976562 L636.993164,67.0976562 L636.993164,75.7890625 C634.443685,79.7291667 631.894206,80.0768229 629.344727,76.8320312 L630.387695,42.4140625 C628.301758,45.4270833 626.099935,48.0924479 623.782227,50.4101563 C623.086914,51.1054687 622.623372,50.8736979 622.391602,49.7148438 C627.49056,41.1393229 631.662435,29.3190104 634.907227,14.2539062 L630.735352,14.2539062 C630.27181,14.4856771 628.301758,14.6015625 624.825195,14.6015625 L623.086914,12.1679688 C624.013997,12.3997396 624.941081,12.515625 625.868164,12.515625 L642.208008,12.515625 C644.525716,9.50260417 646.379883,7.41666667 647.770508,6.2578125 C647.538737,6.2578125 647.886393,6.2578125 648.813477,6.2578125 C651.594727,7.88020833 654.144206,10.0820312 656.461914,12.8632812 C656.925456,13.7903646 656.80957,14.2539062 656.114258,14.2539062 L647.075195,14.2539062 C647.306966,15.4127604 646.379883,16.4557292 644.293945,17.3828125 C641.280924,23.8723958 637.920247,30.2460938 634.211914,36.5039062 C634.907227,36.9674479 635.83431,37.3151042 636.993164,37.546875 Z M676.973633,79.6132812 L676.973633,43.109375 L665.500977,43.109375 C665.037435,44.0364583 664.573893,44.6158854 664.110352,44.8476562 C663.415039,45.3111979 662.951497,45.3111979 662.719727,44.8476562 C662.256185,44.8476562 661.213216,44.1523438 659.59082,42.7617188 C657.736654,41.3710938 656.693685,40.5598958 656.461914,40.328125 C656.230143,39.6328125 656.230143,39.1692708 656.461914,38.9375 L658.895508,36.5039062 L658.895508,16.3398438 L658.547852,10.7773438 C658.547852,10.7773438 658.663737,10.6614583 658.895508,10.4296875 C662.37207,10.8932292 665.500977,11.5885417 668.282227,12.515625 C668.513997,12.9791667 668.513997,13.3268229 668.282227,13.5585938 C668.050456,14.0221354 667.702799,14.4856771 667.239258,14.9492188 C666.775716,15.1809896 666.543945,15.296875 666.543945,15.296875 L666.543945,41.3710938 L676.973633,41.3710938 L676.973633,7.99609375 L676.27832,2.43359375 C676.27832,2.43359375 676.394206,2.31770833 676.625977,2.0859375 C680.566081,2.31770833 683.694987,2.89713542 686.012695,3.82421875 C686.476237,4.05598958 686.592122,4.51953125 686.360352,5.21484375 C685.665039,5.91015625 684.969727,6.48958333 684.274414,6.953125 L684.274414,41.3710938 L695.051758,41.3710938 L695.051758,15.296875 L694.704102,11.125 C694.704102,10.8932292 694.935872,10.7773438 695.399414,10.7773438 C697.948893,11.2408854 701.30957,12.1679688 705.481445,13.5585938 C705.481445,13.7903646 705.481445,14.0221354 705.481445,14.2539062 C705.249674,14.4856771 704.554362,15.0651042 703.395508,15.9921875 L704.09082,43.109375 C699.687174,46.8177083 696.674154,46.8177083 695.051758,43.109375 L684.274414,43.109375 L684.274414,79.6132812 L697.137695,79.6132812 L697.137695,54.234375 C696.905924,54.0026042 696.674154,53.4231771 696.442383,52.4960938 C696.210612,51.8007812 696.094727,51.2213542 696.094727,50.7578125 C696.094727,50.2942708 696.442383,49.9466146 697.137695,49.7148437 C700.150716,50.1783854 703.279622,50.7578125 706.524414,51.453125 C706.987956,51.9166667 707.103841,52.2643229 706.87207,52.4960938 C706.640299,52.9596354 706.292643,53.3072917 705.829102,53.5390625 C705.36556,54.0026042 705.249674,54.5820312 705.481445,55.2773438 L706.176758,81.3515625 C705.481445,82.7421875 703.511393,83.5533854 700.266602,83.7851562 C698.180664,83.7851562 697.137695,82.9739583 697.137695,81.3515625 L663.762695,81.3515625 C663.299154,82.046875 662.835612,82.7421875 662.37207,83.4375 C661.676758,83.9010417 661.097331,83.9010417 660.633789,83.4375 L654.375977,78.9179688 C654.144206,78.6861979 654.02832,78.3385417 654.02832,77.875 C654.02832,77.6432292 654.144206,77.5273438 654.375977,77.5273438 L657.157227,75.7890625 L657.157227,55.2773438 L656.80957,49.7148437 C656.577799,49.7148437 656.693685,49.5989583 657.157227,49.3671875 C660.633789,49.8307292 663.762695,50.5260417 666.543945,51.453125 C666.543945,52.1484375 666.543945,52.4960938 666.543945,52.4960938 C666.312174,52.9596354 665.732747,53.5390625 664.805664,54.234375 C664.573893,54.234375 664.458008,54.234375 664.458008,54.234375 L664.458008,79.6132812 L676.973633,79.6132812 Z" id="形状"></path>
            <path d="M743.02832,53.1914062 L731.555664,53.1914062 L725.993164,63.96875 C729.701497,63.7369792 733.409831,63.8528646 737.118164,64.3164062 C739.435872,60.8398438 741.405924,57.1315104 743.02832,53.1914062 Z M721.821289,53.1914062 L719.735352,53.1914062 C719.27181,53.4231771 717.301758,53.5390625 713.825195,53.5390625 L712.086914,51.1054688 C713.013997,51.3372396 713.941081,51.453125 714.868164,51.453125 L722.516602,51.453125 C725.066081,46.5859375 726.804362,43.109375 727.731445,41.0234375 C727.963216,40.5598958 728.542643,40.4440104 729.469727,40.6757812 C730.165039,41.1393229 731.092122,41.4869792 732.250977,41.71875 C731.555664,41.4869792 731.323893,41.0234375 731.555664,40.328125 L731.555664,31.984375 C724.138997,38.9375 717.99707,43.6888021 713.129883,46.2382812 C712.43457,46.0065104 712.202799,45.6588542 712.43457,45.1953125 C717.765299,39.8645833 722.400716,33.0273438 726.34082,24.6835938 L720.430664,24.6835938 C718.576497,24.6835938 716.722331,24.6835938 714.868164,24.6835938 L713.129883,22.25 C712.898112,22.4817708 713.825195,22.5976562 715.911133,22.5976562 L731.555664,22.5976562 L731.555664,1.390625 C731.787435,1.15885417 732.019206,0.927083333 732.250977,0.6953125 C738.045247,1.85416667 741.405924,2.66536458 742.333008,3.12890625 C742.564779,3.36067708 742.564779,3.82421875 742.333008,4.51953125 C741.405924,4.98307292 740.594727,5.5625 739.899414,6.2578125 L739.899414,22.5976562 L747.895508,22.5976562 C748.359049,22.1341146 748.938477,21.5546875 749.633789,20.859375 C751.024414,19.0052083 752.067383,17.8463542 752.762695,17.3828125 C752.994466,17.1510417 753.226237,17.1510417 753.458008,17.3828125 C756.239258,19.7005208 758.20931,21.6705729 759.368164,23.2929688 C759.368164,23.5247396 759.368164,23.7565104 759.368164,23.9882812 C759.368164,24.4518229 759.252279,24.6835938 759.020508,24.6835938 L739.899414,24.6835938 L739.899414,39.2851562 C738.508789,41.3710938 736.191081,42.2981771 732.946289,42.0664062 C734.568685,42.7617188 736.075195,43.4570312 737.46582,44.1523438 C737.697591,44.6158854 737.813477,44.9635417 737.813477,45.1953125 C737.581706,45.6588542 737.118164,46.0065104 736.422852,46.2382812 C735.495768,46.4700521 735.032227,46.7018229 735.032227,46.9335938 L732.598633,51.453125 L742.333008,51.453125 C742.564779,50.5260417 743.260091,49.4830729 744.418945,48.3242188 C744.882487,48.3242188 745.230143,48.3242188 745.461914,48.3242188 C749.402018,50.4101562 752.183268,52.1484375 753.805664,53.5390625 C753.805664,53.7708333 753.921549,54.234375 754.15332,54.9296875 C753.689779,54.9296875 752.762695,55.3932292 751.37207,56.3203125 C751.140299,56.3203125 751.024414,56.3203125 751.024414,56.3203125 C749.633789,59.796875 747.547852,63.0416667 744.766602,66.0546875 C745.693685,66.2864583 746.504883,66.5182292 747.200195,66.75 C752.530924,69.7630208 753.921549,73.1236979 751.37207,76.8320312 C748.359049,79.3815104 744.766602,78.3385417 740.594727,73.703125 C740.362956,73.4713542 739.783529,72.8919271 738.856445,71.9648438 C731.671549,77.2955729 723.211914,81.0039062 713.477539,83.0898438 C713.245768,82.8580729 713.129883,82.6263021 713.129883,82.3945312 C721.010091,78.4544271 727.847331,73.703125 733.641602,68.140625 C731.323893,67.2135417 728.658529,66.2864583 725.645508,65.359375 C721.473633,66.9817708 718.576497,66.75 716.954102,64.6640625 C716.49056,63.96875 716.374674,63.5052083 716.606445,63.2734375 C718.228841,59.796875 719.967122,56.4361979 721.821289,53.1914062 Z M718.344727,5.21484375 C722.980143,6.37369792 726.224935,8.80729167 728.079102,12.515625 C729.469727,16.2239583 728.890299,18.8893229 726.34082,20.5117188 C723.096029,21.4388021 721.241862,19.9322917 720.77832,15.9921875 C720.546549,14.1380208 720.314779,12.2838542 720.083008,10.4296875 C719.387695,8.80729167 718.576497,7.41666667 717.649414,6.2578125 C717.417643,6.02604167 717.649414,5.67838542 718.344727,5.21484375 Z M748.243164,3.4765625 C753.110352,5.5625 755.891602,6.953125 756.586914,7.6484375 C756.586914,8.57552083 756.471029,8.92317708 756.239258,8.69140625 C755.775716,9.15494792 754.964518,9.38671875 753.805664,9.38671875 C751.487956,11.4726562 747.779622,15.4127604 742.680664,21.2070312 C742.217122,21.6705729 741.753581,21.7864583 741.290039,21.5546875 C740.826497,21.5546875 740.826497,21.2070312 741.290039,20.5117188 C741.753581,18.6575521 743.723633,12.9791667 747.200195,3.4765625 C747.663737,3.4765625 748.011393,3.4765625 748.243164,3.4765625 Z M753.805664,31.6367187 C757.050456,34.4179688 757.629883,37.1992188 755.543945,39.9804688 C752.299154,42.2981771 749.749674,41.4869792 747.895508,37.546875 C747.663737,37.3151042 747.431966,36.9674479 747.200195,36.5039062 C746.736654,35.1132812 746.388997,34.0703125 746.157227,33.375 C744.766602,31.7526042 743.02832,30.3619792 740.942383,29.203125 C740.478841,28.9713542 740.478841,28.6236979 740.942383,28.1601562 C745.80957,28.1601562 750.097331,29.3190104 753.805664,31.6367187 Z M776.750977,63.6210938 L776.40332,63.6210938 C780.111654,67.5611979 786.601237,71.0377604 795.87207,74.0507812 C796.103841,74.5143229 796.103841,74.8619792 795.87207,75.09375 C792.395508,76.2526042 789.614258,78.8020833 787.52832,82.7421875 C787.064779,83.2057292 786.601237,83.3216146 786.137695,83.0898438 C780.111654,79.1497396 775.360352,74.8619792 771.883789,70.2265625 C765.162435,77.6432292 756.123372,82.7421875 744.766602,85.5234375 C743.839518,85.2916667 743.607747,84.828125 744.071289,84.1328125 C754.500977,80.1927083 762.49707,73.5872396 768.05957,64.3164062 C764.351237,57.1315104 762.381185,48.4401042 762.149414,38.2421875 C759.831706,42.1822917 757.513997,45.6588542 755.196289,48.671875 C754.269206,48.671875 753.921549,48.3242188 754.15332,47.6289062 C760.179362,36.2721354 763.887695,21.0911458 765.27832,2.0859375 C765.510091,1.62239583 765.857747,1.390625 766.321289,1.390625 C770.724935,2.54947917 774.780924,3.82421875 778.489258,5.21484375 C778.952799,6.14192708 779.068685,6.60546875 778.836914,6.60546875 C778.141602,7.30078125 777.098633,7.99609375 775.708008,8.69140625 C773.390299,15.1809896 770.956706,21.0911458 768.407227,26.421875 L784.051758,26.421875 C786.601237,23.1770833 788.455404,21.0911458 789.614258,20.1640625 C789.846029,20.1640625 790.193685,20.1640625 790.657227,20.1640625 C794.829102,23.4088542 797.378581,25.6106771 798.305664,26.7695312 L798.305664,28.1601562 L780.922852,28.1601562 C785.094727,29.5507812 787.760091,30.59375 788.918945,31.2890625 C789.150716,31.7526042 789.150716,32.2161458 788.918945,32.6796875 C787.991862,32.9114583 787.064779,33.4908854 786.137695,34.4179688 C784.051758,46.2382812 780.922852,55.9726562 776.750977,63.6210938 Z M763.192383,36.15625 L763.540039,36.15625 C765.162435,45.4270833 767.711914,52.6119792 771.188477,57.7109375 C774.433268,49.8307292 776.519206,39.9804688 777.446289,28.1601562 L767.364258,28.1601562 C766.205404,30.9414062 764.814779,33.6067708 763.192383,36.15625 Z" id="形状"></path>
            <path d="M840.719727,10.7773438 L840.719727,26.421875 L868.532227,26.421875 L868.532227,10.7773438 L840.719727,10.7773438 Z M849.063477,59.796875 L849.063477,76.8320312 L869.575195,76.8320312 L869.575195,59.796875 L849.063477,59.796875 Z M840.37207,82.3945312 L840.719727,59.796875 L840.719727,54.234375 C843.964518,55.1614583 846.745768,56.4361979 849.063477,58.0585938 L853.583008,58.0585938 C853.583008,56.6679688 853.583008,54.9296875 853.583008,52.84375 C853.814779,50.9895833 853.930664,48.3242188 853.930664,44.8476562 L842.805664,44.8476562 L840.37207,44.8476562 C838.749674,60.6080729 832.839518,73.703125 822.641602,84.1328125 C822.17806,84.3645833 821.714518,84.3645833 821.250977,84.1328125 C821.019206,83.9010417 821.019206,83.5533854 821.250977,83.0898438 C828.435872,73.8190104 831.912435,58.5221354 831.680664,37.1992188 L831.680664,12.515625 C831.448893,10.1979167 831.101237,8.22786458 830.637695,6.60546875 C830.405924,5.21484375 830.405924,4.40364583 830.637695,4.171875 C832.955404,4.8671875 836.316081,6.37369792 840.719727,8.69140625 L867.489258,8.69140625 C867.721029,8.69140625 868.300456,8.11197917 869.227539,6.953125 C869.922852,5.79427083 870.502279,5.09895833 870.96582,4.8671875 C871.429362,4.8671875 871.892904,4.8671875 872.356445,4.8671875 C875.137695,6.2578125 877.918945,8.11197917 880.700195,10.4296875 C880.931966,10.6614583 880.931966,11.0091146 880.700195,11.4726562 L877.918945,13.5585938 L878.266602,28.1601562 C873.399414,32.7955729 870.154622,32.9114583 868.532227,28.5078125 L868.532227,28.1601562 L840.719727,28.1601562 L840.719727,36.5039062 C840.719727,39.0533854 840.603841,41.2552083 840.37207,43.109375 L853.930664,43.109375 C853.930664,40.7916667 853.930664,37.6627604 853.930664,33.7226562 C853.930664,32.3320312 853.930664,31.0572917 853.930664,29.8984375 C853.698893,29.6666667 853.930664,29.3190104 854.625977,28.8554688 C857.870768,29.5507812 861.11556,30.4778646 864.360352,31.6367188 C864.823893,32.5638021 864.939779,33.1432292 864.708008,33.375 C864.244466,33.8385417 863.665039,34.3020833 862.969727,34.765625 C862.506185,34.9973958 862.274414,35.1132812 862.274414,35.1132812 C861.810872,37.8945312 861.694987,40.5598958 861.926758,43.109375 L871.313477,43.109375 C873.399414,40.328125 875.137695,38.2421875 876.52832,36.8515625 C876.52832,36.8515625 876.760091,36.8515625 877.223633,36.8515625 C877.455404,36.8515625 877.687174,36.8515625 877.918945,36.8515625 C880.931966,38.9375 883.481445,41.1393229 885.567383,43.4570312 C885.799154,44.3841146 885.683268,44.8476562 885.219727,44.8476562 L861.926758,44.8476562 C861.926758,49.2513021 861.926758,53.6549479 861.926758,58.0585938 L868.532227,58.0585938 C869.45931,56.6679688 870.502279,55.3932292 871.661133,54.234375 C871.892904,54.0026042 872.24056,53.8867187 872.704102,53.8867187 C874.094727,54.8138021 876.296549,56.3203125 879.30957,58.40625 C879.773112,58.8697917 880.352539,59.2174479 881.047852,59.4492188 C881.279622,59.6809896 881.279622,60.0286458 881.047852,60.4921875 C880.58431,60.9557292 880.004883,61.4192708 879.30957,61.8828125 C878.846029,62.1145833 878.614258,62.2304688 878.614258,62.2304688 L879.30957,81.3515625 C878.846029,83.2057292 876.875977,84.4804688 873.399414,85.1757812 C870.849935,85.4075521 869.575195,84.4804688 869.575195,82.3945312 L869.575195,78.5703125 L849.063477,78.5703125 L849.063477,81.3515625 C848.599935,83.2057292 846.861654,84.4804688 843.848633,85.1757812 C841.299154,85.4075521 840.140299,84.4804688 840.37207,82.3945312 Z M830.290039,39.2851562 C828.899414,40.2122396 827.508789,41.0234375 826.118164,41.71875 C823.568685,43.3411458 821.714518,44.5 820.555664,45.1953125 L821.250977,74.7460938 C821.714518,80.7721354 818.353841,84.3645833 811.168945,85.5234375 C810.241862,85.0598958 809.77832,84.7122396 809.77832,84.4804688 C809.546549,79.8450521 806.649414,76.7161458 801.086914,75.09375 C800.159831,74.6302083 800.275716,74.0507812 801.43457,73.3554688 C808.851237,74.5143229 812.443685,73.8190104 812.211914,71.2695312 L812.211914,50.7578125 C809.662435,52.6119792 807.228841,54.234375 804.911133,55.625 C803.984049,56.3203125 803.520508,56.3203125 803.520508,55.625 C802.593424,52.3802083 801.666341,49.0195312 800.739258,45.5429688 C800.739258,45.0794271 801.086914,44.7317708 801.782227,44.5 C804.795247,43.8046875 808.27181,43.109375 812.211914,42.4140625 L812.211914,27.4648437 L808.735352,27.4648437 C806.417643,27.4648437 804.447591,27.4648437 802.825195,27.4648437 L801.086914,25.03125 C802.013997,25.2630208 802.941081,25.3789062 803.868164,25.3789062 L812.211914,25.3789062 L812.211914,6.953125 L811.516602,2.43359375 C811.516602,2.43359375 811.516602,2.43359375 811.516602,2.43359375 C811.516602,2.66536458 811.632487,2.54947917 811.864258,2.0859375 C816.036133,2.78125 819.512695,3.59244792 822.293945,4.51953125 C822.525716,4.75130208 822.525716,5.21484375 822.293945,5.91015625 C822.062174,6.14192708 821.366862,6.48958333 820.208008,6.953125 L820.208008,25.3789062 C820.439779,25.1471354 820.787435,24.7994792 821.250977,24.3359375 C822.641602,22.4817708 823.68457,21.3229167 824.379883,20.859375 C824.611654,20.6276042 824.95931,20.6276042 825.422852,20.859375 C826.581706,22.0182292 828.551758,23.7565104 831.333008,26.0742187 C831.564779,26.7695312 831.333008,27.2330729 830.637695,27.4648437 L820.208008,27.4648437 L820.208008,30.9414062 L820.555664,40.6757812 C823.568685,39.7486979 826.697591,38.9375 829.942383,38.2421875 C830.405924,38.7057292 830.52181,39.0533854 830.290039,39.2851562 Z" id="形状"></path>
            <path d="M939.106445,24.6835938 L939.106445,6.953125 C938.874674,6.2578125 938.642904,5.33072917 938.411133,4.171875 C937.947591,2.54947917 937.831706,1.62239583 938.063477,1.390625 C944.55306,1.62239583 948.956706,2.66536458 951.274414,4.51953125 C951.274414,4.98307292 950.694987,5.67838542 949.536133,6.60546875 C949.304362,6.83723958 949.188477,6.953125 949.188477,6.953125 L949.188477,24.6835938 L955.098633,24.6835938 C955.098633,24.6835938 955.098633,24.5677083 955.098633,24.3359375 C957.879883,20.6276042 959.849935,18.3098958 961.008789,17.3828125 C961.24056,17.1510417 961.588216,17.1510417 962.051758,17.3828125 C967.846029,20.859375 971.206706,23.4088542 972.133789,25.03125 C972.36556,25.9583333 972.133789,26.421875 971.438477,26.421875 L949.188477,26.421875 L949.188477,53.1914062 L957.532227,53.1914062 C960.545247,48.7877604 962.631185,46.1223958 963.790039,45.1953125 C963.790039,45.1953125 964.253581,45.1953125 965.180664,45.1953125 C969.352539,48.2083333 972.829102,50.8736979 975.610352,53.1914062 C976.073893,54.1184896 975.958008,54.8138021 975.262695,55.2773438 L896.692383,55.2773438 C894.606445,55.2773438 892.636393,55.2773438 890.782227,55.2773438 L889.043945,52.84375 C889.971029,53.0755208 891.013997,53.1914062 892.172852,53.1914062 L914.075195,53.1914062 L914.075195,26.421875 L899.473633,26.421875 C897.387695,26.6536458 895.417643,26.7695312 893.563477,26.7695312 L891.825195,24.3359375 C892.752279,24.5677083 893.795247,24.6835938 894.954102,24.6835938 L914.075195,24.6835938 L914.075195,6.953125 C913.843424,6.2578125 913.611654,5.33072917 913.379883,4.171875 C912.916341,2.54947917 912.800456,1.62239583 913.032227,1.390625 C919.52181,1.62239583 923.925456,2.66536458 926.243164,4.51953125 C926.243164,4.98307292 925.663737,5.67838542 924.504883,6.60546875 C924.273112,6.83723958 924.157227,6.953125 924.157227,6.953125 L924.157227,24.6835938 L939.106445,24.6835938 Z M939.106445,53.1914062 L939.106445,26.421875 L924.157227,26.421875 L924.157227,53.1914062 L939.106445,53.1914062 Z M918.942383,58.0585938 C919.869466,58.5221354 922.30306,59.9127604 926.243164,62.2304688 C928.097331,63.1575521 929.487956,63.8528646 930.415039,64.3164062 C930.415039,64.7799479 930.415039,65.1276042 930.415039,65.359375 C929.256185,66.0546875 928.097331,66.5182292 926.938477,66.75 C926.011393,66.75 925.431966,67.0976562 925.200195,67.7929688 C913.148112,76.6002604 901.791341,82.046875 891.129883,84.1328125 C890.666341,83.6692708 890.550456,83.4375 890.782227,83.4375 C900.980143,78.1067708 909.90332,69.7630208 917.551758,58.40625 C917.783529,57.9427083 918.24707,57.8268229 918.942383,58.0585938 Z M938.411133,60.1445312 C952.085612,61.9986979 961.588216,66.0546875 966.918945,72.3125 C969.004883,75.09375 969.352539,77.875 967.961914,80.65625 C965.875977,84.1328125 963.558268,85.0598958 961.008789,83.4375 C959.618164,82.2786458 957.648112,79.8450521 955.098633,76.1367188 C949.304362,68.2565104 943.625977,63.1575521 938.063477,60.8398438 C937.136393,60.6080729 937.252279,60.3763021 938.411133,60.1445312 Z" id="形状"></path>
            <path d="M983.954102,15.296875 L1045.48926,15.296875 C1047.34342,12.2838542 1049.54525,9.50260417 1052.09473,6.953125 C1052.3265,6.953125 1052.67415,6.953125 1053.1377,6.953125 C1058.23665,10.4296875 1061.71322,13.0950521 1063.56738,14.9492188 C1064.03092,16.1080729 1063.91504,16.8033854 1063.21973,17.0351562 L988.473633,17.0351562 C986.387695,17.2669271 984.417643,17.3828125 982.563477,17.3828125 L980.825195,14.9492188 C981.752279,15.1809896 982.795247,15.296875 983.954102,15.296875 Z M1006.89941,25.3789062 L1006.89941,37.546875 L1034.36426,37.546875 L1034.36426,25.3789062 L1006.89941,25.3789062 Z M1026.36816,58.0585938 L1026.36816,63.6210938 L1046.87988,63.6210938 C1046.87988,63.6210938 1046.87988,63.5052083 1046.87988,63.2734375 C1049.66113,59.5651042 1051.63118,57.2473958 1052.79004,56.3203125 C1053.02181,56.0885417 1053.36947,56.0885417 1053.83301,56.3203125 C1059.62728,59.796875 1062.98796,62.3463542 1063.91504,63.96875 C1064.14681,64.8958333 1063.91504,65.359375 1063.21973,65.359375 L1026.36816,65.359375 L1026.36816,71.2695312 C1026.36816,72.4283854 1026.36816,74.1666667 1026.36816,76.484375 C1026.59993,78.8020833 1026.71582,80.3085938 1026.71582,81.0039062 C1025.55697,83.5533854 1021.73275,85.2916667 1015.24316,86.21875 C1014.77962,86.21875 1014.31608,85.8710938 1013.85254,85.1757812 C1011.53483,80.5403646 1007.8265,77.5273438 1002.72754,76.1367188 C1002.264,75.9049479 1002.03223,75.5572917 1002.03223,75.09375 C1002.264,75.09375 1002.61165,75.09375 1003.0752,75.09375 C1010.26009,76.2526042 1014.54785,76.2526042 1015.93848,75.09375 L1015.93848,65.359375 L987.430664,65.359375 C985.576497,65.5911458 983.722331,65.7070312 981.868164,65.7070312 L979.782227,63.2734375 C980.70931,63.5052083 981.752279,63.6210938 982.911133,63.6210938 L1015.93848,63.6210938 L1015.93848,57.015625 C1015.70671,56.7838542 1015.47493,56.2044271 1015.24316,55.2773438 C1015.01139,54.3502604 1014.89551,53.6549479 1014.89551,53.1914062 C1014.89551,52.7278646 1015.12728,52.3802083 1015.59082,52.1484375 C1017.67676,52.3802083 1020.92155,52.9596354 1025.3252,53.8867188 C1026.25228,53.8867188 1026.94759,53.8867188 1027.41113,53.8867188 C1029.03353,52.2643229 1030.77181,50.5260417 1032.62598,48.671875 L998.555664,48.671875 C996.701497,48.9036458 994.847331,49.0195312 992.993164,49.0195312 L990.907227,46.5859375 C991.83431,46.8177083 992.877279,46.9335938 994.036133,46.9335938 L1032.62598,46.9335938 C1033.32129,46.0065104 1034.71191,44.7317708 1036.79785,43.109375 C1035.17546,42.8776042 1034.36426,41.9505208 1034.36426,40.328125 L1034.36426,39.2851562 L1006.89941,39.2851562 L1006.89941,41.3710938 C1002.264,44.6158854 999.135091,44.6158854 997.512695,41.3710938 L997.512695,27.4648438 C997.280924,24.9153646 996.933268,22.8294271 996.469727,21.2070312 C996.237956,19.8164062 996.237956,19.0052083 996.469727,18.7734375 C998.787435,19.46875 1002.264,21.0911458 1006.89941,23.640625 L1033.66895,23.640625 C1035.52311,21.3229167 1036.79785,20.0481771 1037.49316,19.8164062 C1043.05566,21.6705729 1046.53223,23.640625 1047.92285,25.7265625 C1047.69108,26.1901042 1046.87988,26.8854167 1045.48926,27.8125 C1045.02572,28.0442708 1044.79395,28.1601562 1044.79395,28.1601562 L1044.79395,40.328125 C1044.3304,41.9505208 1042.24447,42.9934896 1038.53613,43.4570312 C1040.62207,44.3841146 1044.56217,46.7018229 1050.35645,50.4101562 C1050.12467,51.1054688 1050.00879,51.453125 1050.00879,51.453125 C1049.08171,51.6848958 1047.69108,51.8007812 1045.83691,51.8007812 C1043.98275,52.0325521 1042.70801,52.1484375 1042.0127,52.1484375 C1037.37728,53.0755208 1032.16243,54.6979167 1026.36816,57.015625 C1026.13639,57.4791667 1026.13639,57.8268229 1026.36816,58.0585938 Z M1010.72363,0 C1020.45801,0.231770833 1026.02051,2.89713542 1027.41113,7.99609375 C1027.6429,11.0091146 1026.36816,13.2109375 1023.58691,14.6015625 C1020.34212,15.7604167 1018.1403,15.1809896 1016.98145,12.8632812 C1016.5179,12.3997396 1016.17025,11.4726562 1015.93848,10.0820312 C1015.01139,5.91015625 1013.15723,3.01302083 1010.37598,1.390625 C1009.91243,0.6953125 1010.02832,0.231770833 1010.72363,0 Z" id="形状"></path>
            <path d="M1103.89551,67.7929688 L1103.89551,53.1914062 L1075.73535,53.1914062 C1075.27181,53.4231771 1073.30176,53.5390625 1069.8252,53.5390625 L1068.08691,51.1054687 C1069.014,51.3372396 1069.94108,51.453125 1070.86816,51.453125 L1103.89551,51.453125 L1103.89551,11.4726562 L1080.25488,11.4726562 C1078.16895,11.7044271 1076.19889,11.8203125 1074.34473,11.8203125 L1072.60645,9.38671875 C1073.53353,9.61848958 1074.5765,9.734375 1075.73535,9.734375 L1130.31738,9.734375 C1130.31738,9.734375 1130.31738,9.61848958 1130.31738,9.38671875 C1133.09863,5.67838542 1135.06868,3.36067708 1136.22754,2.43359375 C1136.45931,2.43359375 1136.80697,2.43359375 1137.27051,2.43359375 C1143.06478,5.91015625 1146.42546,8.45963542 1147.35254,10.0820312 C1147.58431,11.0091146 1147.35254,11.4726562 1146.65723,11.4726562 L1116.41113,11.4726562 C1116.17936,12.6315104 1115.48405,13.5585938 1114.3252,14.2539062 L1114.3252,51.453125 L1136.92285,51.453125 C1136.92285,51.453125 1136.92285,51.3372396 1136.92285,51.1054687 C1139.7041,47.3971354 1141.67415,45.0794271 1142.83301,44.1523438 C1142.83301,44.1523438 1143.18066,44.1523438 1143.87598,44.1523438 C1149.67025,47.6289062 1153.03092,50.1783854 1153.95801,51.8007812 C1154.18978,52.7278646 1153.95801,53.1914062 1153.2627,53.1914062 L1114.3252,53.1914062 L1114.3252,65.7070312 C1114.3252,70.1106771 1114.3252,75.4414062 1114.3252,81.6992188 C1114.09342,82.8580729 1112.58691,83.7851562 1109.80566,84.4804688 C1106.3291,85.1757813 1104.35905,85.1757813 1103.89551,84.4804688 C1103.43197,83.3216146 1103.31608,80.1927083 1103.54785,75.09375 C1103.54785,73.2395833 1103.66374,70.8059896 1103.89551,67.7929688 Z M1079.90723,22.5976562 C1089.17806,25.6106771 1094.3929,30.3619792 1095.55176,36.8515625 C1095.78353,40.5598958 1094.27702,43.2252604 1091.03223,44.8476562 C1087.32389,46.2382812 1084.77441,45.3111979 1083.38379,42.0664062 C1082.68848,41.3710938 1082.57259,39.6328125 1083.03613,36.8515625 C1083.49967,31.2890625 1082.34082,26.8854167 1079.55957,23.640625 C1079.09603,23.4088542 1079.21191,23.0611979 1079.90723,22.5976562 Z M1132.40332,21.2070312 C1134.48926,22.3658854 1138.31348,24.4518229 1143.87598,27.4648438 C1143.87598,27.6966146 1143.87598,28.0442708 1143.87598,28.5078125 C1143.41243,28.7395833 1142.71712,28.9713542 1141.79004,29.203125 C1140.86296,29.4348958 1140.28353,29.5507812 1140.05176,29.5507812 C1131.93978,36.9674479 1125.21842,42.7617188 1119.8877,46.9335938 C1119.19238,46.7018229 1118.96061,46.4700521 1119.19238,46.2382812 C1124.05957,37.4309896 1127.88379,29.0872396 1130.66504,21.2070312 C1130.89681,20.9752604 1131.47624,20.9752604 1132.40332,21.2070312 Z" id="形状"></path>
            <path d="M1182.11816,52.4960938 L1182.11816,75.7890625 L1216.18848,75.7890625 L1216.18848,52.4960938 L1182.11816,52.4960938 Z M1172.73145,83.4375 L1172.73145,53.1914062 C1172.73145,52.7278646 1172.61556,51.9166667 1172.38379,50.7578125 C1172.38379,49.3671875 1172.38379,48.2083333 1172.38379,47.28125 C1172.38379,47.0494792 1172.73145,46.8177083 1173.42676,46.5859375 C1173.65853,46.8177083 1174.00618,47.0494792 1174.46973,47.28125 C1176.78743,48.671875 1178.87337,49.7148438 1180.72754,50.4101562 L1214.4502,50.4101562 C1215.84082,48.7877604 1216.88379,47.6289062 1217.5791,46.9335938 C1217.81087,46.7018229 1218.27441,46.7018229 1218.96973,46.9335938 C1221.28743,48.0924479 1224.30046,49.8307292 1228.00879,52.1484375 C1228.24056,52.3802083 1228.58822,52.4960938 1229.05176,52.4960938 C1229.05176,53.1914062 1229.16764,53.5390625 1229.39941,53.5390625 C1228.93587,54.0026042 1228.24056,54.4661458 1227.31348,54.9296875 C1226.84993,55.1614583 1226.50228,55.2773438 1226.27051,55.2773438 L1226.96582,83.4375 C1220.47624,86.9140625 1216.88379,86.9140625 1216.18848,83.4375 L1216.18848,77.5273438 L1182.11816,77.5273438 L1182.11816,82.3945312 C1181.19108,83.7851562 1179.10514,84.7122396 1175.86035,85.1757812 C1173.77441,85.4075521 1172.73145,84.828125 1172.73145,83.4375 Z M1175.5127,30.9414062 L1222.79395,27.8125 C1220.70801,25.2630208 1217.23145,22.5976562 1212.36426,19.8164062 C1211.66895,19.8164062 1211.32129,19.46875 1211.32129,18.7734375 C1211.55306,18.3098958 1212.13249,18.078125 1213.05957,18.078125 C1222.3304,19.46875 1229.63118,22.25 1234.96191,26.421875 C1239.8291,31.2890625 1240.29264,36.0403646 1236.35254,40.6757812 C1231.94889,43.4570313 1228.47233,41.2552083 1225.92285,34.0703125 C1225.69108,34.0703125 1225.45931,33.8385417 1225.22754,33.375 C1224.99577,32.2161458 1224.764,31.4049479 1224.53223,30.9414062 C1222.21452,31.4049479 1220.0127,31.8684896 1217.92676,32.3320312 C1194.5179,36.2721354 1177.36686,39.6328125 1166.47363,42.4140625 C1165.54655,42.8776042 1165.08301,42.6458333 1165.08301,41.71875 C1164.61947,41.0234375 1163.92415,39.7486979 1162.99707,37.8945312 C1161.37467,34.4179688 1160.44759,32.2161458 1160.21582,31.2890625 C1159.98405,30.59375 1160.09993,30.1302083 1160.56348,29.8984375 C1169.83431,28.7395833 1179.68457,19.1210938 1190.11426,1.04296875 C1190.34603,0.579427083 1190.69368,0.34765625 1191.15723,0.34765625 C1194.17025,1.73828125 1198.68978,3.82421875 1204.71582,6.60546875 C1204.94759,7.30078125 1204.94759,7.88020833 1204.71582,8.34375 C1203.55697,8.80729167 1202.514,9.15494792 1201.58691,9.38671875 C1199.96452,9.61848958 1198.92155,9.85026042 1198.45801,10.0820312 C1187.79655,20.7434896 1180.14811,27.6966146 1175.5127,30.9414062 Z" id="形状"></path>
        </g>
    </g>
</svg>